<svg width="1080" height="1080" viewBox="0 0 1080 1080" fill="none" xmlns="http://www.w3.org/2000/svg">
<rect width="1080" height="1080" fill="#DBFEA3"/>
<path d="M550.017 895.358C481.551 895.358 422.46 881.864 372.744 854.875C323.313 827.602 285.244 788.824 258.54 738.54C232.119 687.972 218.909 627.886 218.909 558.284C218.909 490.67 232.261 431.58 258.966 381.011C285.67 330.159 323.312 290.67 371.892 262.545C420.472 234.136 477.716 219.932 543.625 219.932C590.216 219.932 632.83 227.176 671.466 241.665C710.102 256.153 743.483 277.602 771.608 306.011C799.733 334.42 821.608 369.506 837.233 411.267C852.858 452.744 860.67 500.33 860.67 554.023V606.011H291.778V484.989H666.778C666.494 462.83 661.239 443.085 651.011 425.756C640.784 408.426 626.722 394.932 608.824 385.273C591.21 375.33 570.898 370.358 547.886 370.358C524.591 370.358 503.71 375.614 485.244 386.125C466.778 396.352 452.148 410.415 441.352 428.312C430.557 445.926 424.875 465.955 424.307 488.398V611.551C424.307 638.256 429.563 661.693 440.074 681.864C450.585 701.75 465.5 717.233 484.818 728.312C504.136 739.392 527.148 744.932 553.852 744.932C572.318 744.932 589.08 742.375 604.136 737.261C619.193 732.148 632.119 724.619 642.915 714.676C653.71 704.733 661.807 692.517 667.205 678.028L858.54 683.568C850.585 726.466 833.114 763.824 806.125 795.642C779.42 827.176 744.335 851.75 700.869 869.364C657.403 886.693 607.119 895.358 550.017 895.358Z" fill="#141D12"/>
</svg>
